<?xml version="1.0" encoding="UTF-8"?>
<!DOCTYPE svg PUBLIC "-//W3C//DTD SVG 1.1//EN" "http://www.w3.org/Graphics/SVG/1.1/DTD/svg11.dtd">
<!-- Creator: CorelDRAW -->
<svg xmlns="http://www.w3.org/2000/svg" xml:space="preserve" width="42.3332mm" height="25.4mm" version="1.1" style="shape-rendering:geometricPrecision; text-rendering:geometricPrecision; image-rendering:optimizeQuality; fill-rule:evenodd; clip-rule:evenodd"
viewBox="0 0 4233.32 2540"
 xmlns:xlink="http://www.w3.org/1999/xlink"
 xmlns:xodm="http://www.corel.com/coreldraw/odm/2003">
 <defs>
  <style type="text/css">
   <![CDATA[
    .fil1 {fill:#FEFEFE}
    .fil0 {fill:#3F7AFF}
   ]]>
  </style>
 </defs>
 <g id="Layer_x0020_1">
  <metadata id="CorelCorpID_0Corel-Layer"/>
  <g id="_2593476824480">
   <path class="fil0" d="M942.78 286.65c-206.54,13.09 -383.09,87.89 -535.98,204.46l-49.92 41.81c-7.46,5.85 -11.1,7.65 -17.84,14.32 -107.65,106.72 -192.96,218.23 -247.82,366.65 -101.02,273.27 -87.67,550.74 42.46,809.51 105.3,209.41 300.95,381.31 519.08,466.69 322.21,126.12 696.97,71.29 962.43,-139.36 21.51,-17.06 49.81,-38.49 67.94,-55.9 10.37,-9.96 19.39,-21.12 29.05,-30.75 63.19,-63 85.4,-94.02 136.35,-170.88 109.2,-164.74 159.69,-387.81 146.84,-595.19 -32.29,-520.62 -490.88,-946.97 -1052.59,-911.36z"/>
   <polygon class="fil0" points="2203.36,2467.3 2772.06,2467.3 2772.06,72.7 2203.36,72.7 "/>
   <path class="fil0" d="M3230.36 1268.69c-8.56,18.08 -34.65,38.87 -49.18,53.22l-154.68 152.65c-23.55,22.34 -15.97,27.58 -15.97,82.79l0 312.28c59.26,4.74 297.02,1 374.16,1l-3.99 0c20.99,0 22.69,-7.8 34.05,-19.84l137.92 -141.42c15.24,-15.62 39.82,-44.02 55.53,-54.91 36.41,30.73 76.56,74.94 112.09,110.06l84.31 83.33c11.5,11.61 14.43,20.8 35.06,20.8l369.15 0 0 -363.18c0,-23.21 -23.66,-38.3 -49.54,-64.18 -31.34,-31.34 -159.68,-155.21 -169.27,-172.61l166.62 -164.63c10.36,-10.35 52.19,-45.03 52.19,-61.54l0 -372.15 -365.16 0c-18.42,0 -100.62,89.23 -118.04,106.44l-113.43 114.06 -206.44 -204.63c-22.43,-23.52 -29.33,-15.87 -84.91,-15.87 -75.47,0 -257.23,-4.23 -310.3,0.99l0 303.32c0,48.99 -7.15,72.5 11.81,90.91 35.3,34.27 67.54,66.28 102.63,100.96 25.01,24.72 81.13,86.11 105.39,102.15z"/>
   <path class="fil1" d="M988.44 999.96c-173.6,22.75 -285.15,179.06 -262.06,336.67 21.51,146.82 160.36,284.33 335.63,257.55 152.59,-23.31 278.99,-155.86 258.44,-333.09 -17.69,-152.53 -157.76,-283.97 -332.01,-261.13z"/>
  </g>
 </g>
</svg>
